<svg width="512" height="512" viewBox="0 0 512 512" fill="none" xmlns="http://www.w3.org/2000/svg">
  <rect width="512" height="512" rx="128" fill="url(#gradient)" />
  <path d="M256 128C179.307 128 117.333 189.974 117.333 266.667C117.333 343.36 179.307 405.333 256 405.333C332.693 405.333 394.667 343.36 394.667 266.667C394.667 189.974 332.693 128 256 128ZM256 373.333C197.12 373.333 149.333 325.547 149.333 266.667C149.333 207.787 197.12 160 256 160C314.88 160 362.667 207.787 362.667 266.667C362.667 325.547 314.88 373.333 256 373.333Z" fill="white"/>
  <path d="M256 192C256 183.164 263.164 176 272 176H304C312.837 176 320 183.164 320 192V224C320 232.837 312.837 240 304 240H272C263.164 240 256 232.837 256 224V192Z" fill="white"/>
  <defs>
    <linearGradient id="gradient" x1="0" y1="0" x2="512" y2="512" gradientUnits="userSpaceOnUse">
      <stop stop-color="#7C3AED"/>
      <stop offset="1" stop-color="#2563EB"/>
    </linearGradient>
  </defs>
</svg> 